name rise30.9205peak61.366fall85.3838.mot
datacolumns 19
datarows 12
range 2.09999700000000 2.11833000000000
endheader
time	ground_force1_vx	ground_force1_vy	ground_force1_vz	ground_force1_px	ground_force1_py	ground_force1_pz	ground_force2_vx	ground_force2_vy	ground_force2_vz	ground_force2_px	ground_force2_py	ground_force2_pz	ground_torque1_x	ground_torque1_y	ground_torque1_z	ground_torque2_x	ground_torque2_y	ground_torque2_z	
2.09999700000000	66.11712000000000	768.20141599999999	58.81956500000000	0.36141400000000	0.00000000000000	0.11905100000000	0.00000000000000	0.00000000000000	0.00000000000000	0.00000000000000	0.00000000000000	0.00000000000000	0.00000000000000	26.59631700000000	0.00000000000000	0.00000000000000	0.00000000000000	0.00000000000000	
2.10166400000000	65.45269300000000	770.30659100000003	58.97291700000000	0.36043500000000	0.00000000000000	0.11905900000000	0.00000000000000	0.00000000000000	0.00000000000000	0.00000000000000	0.00000000000000	0.00000000000000	0.00000000000000	26.72300200000000	0.00000000000000	0.00000000000000	0.00000000000000	0.00000000000000	
2.10333100000000	64.79229100000001	772.29122500000005	59.11528300000000	0.35946400000000	0.00000000000000	0.11906700000000	0.00000000000000	0.00000000000000	0.00000000000000	0.00000000000000	0.00000000000000	0.00000000000000	0.00000000000000	26.84149000000000	0.00000000000000	0.00000000000000	0.00000000000000	0.00000000000000	
2.10499900000000	64.13644499999999	774.15463699999998	59.24611100000000	0.35850300000000	0.00000000000000	0.11907500000000	0.00000000000000	0.00000000000000	0.00000000000000	0.00000000000000	0.00000000000000	0.00000000000000	0.00000000000000	26.95135600000000	0.00000000000000	0.00000000000000	0.00000000000000	0.00000000000000	
2.10666000000000	63.48561600000000	775.89621299999999	59.36483800000000	0.35755000000000	0.00000000000000	0.11908300000000	0.00000000000000	0.00000000000000	0.00000000000000	0.00000000000000	0.00000000000000	0.00000000000000	0.00000000000000	27.05217900000000	0.00000000000000	0.00000000000000	0.00000000000000	0.00000000000000	
2.10832500000000	62.84020100000000	777.51541299999997	59.47089300000000	0.35660500000000	0.00000000000000	0.11909000000000	0.00000000000000	0.00000000000000	0.00000000000000	0.00000000000000	0.00000000000000	0.00000000000000	0.00000000000000	27.14354200000000	0.00000000000000	0.00000000000000	0.00000000000000	0.00000000000000	
2.10999700000000	62.20052700000000	779.01178200000004	59.56370300000000	0.35566700000000	0.00000000000000	0.11909800000000	0.00000000000000	0.00000000000000	0.00000000000000	0.00000000000000	0.00000000000000	0.00000000000000	0.00000000000000	27.22504100000000	0.00000000000000	0.00000000000000	0.00000000000000	0.00000000000000	
2.11166100000000	61.56686400000000	780.38496099999998	59.64270300000000	0.35473400000000	0.00000000000000	0.11910600000000	0.00000000000000	0.00000000000000	0.00000000000000	0.00000000000000	0.00000000000000	0.00000000000000	0.00000000000000	27.29628200000000	0.00000000000000	0.00000000000000	0.00000000000000	0.00000000000000	
2.11332300000000	60.93942000000000	781.63469199999997	59.70733800000000	0.35380800000000	0.00000000000000	0.11911300000000	0.00000000000000	0.00000000000000	0.00000000000000	0.00000000000000	0.00000000000000	0.00000000000000	0.00000000000000	27.35688800000000	0.00000000000000	0.00000000000000	0.00000000000000	0.00000000000000	
2.11498900000000	60.31834900000000	782.76083400000005	59.75706900000000	0.35288600000000	0.00000000000000	0.11912100000000	0.00000000000000	0.00000000000000	0.00000000000000	0.00000000000000	0.00000000000000	0.00000000000000	0.00000000000000	27.40650500000000	0.00000000000000	0.00000000000000	0.00000000000000	0.00000000000000	
2.11666500000000	59.70375100000000	783.76336400000002	59.79138100000000	0.35196700000000	0.00000000000000	0.11912800000000	0.00000000000000	0.00000000000000	0.00000000000000	0.00000000000000	0.00000000000000	0.00000000000000	0.00000000000000	27.44480000000000	0.00000000000000	0.00000000000000	0.00000000000000	0.00000000000000	
2.11833000000000	59.09567600000000	784.64238899999998	59.80978300000000	0.35105200000000	0.00000000000000	0.11913500000000	0.00000000000000	0.00000000000000	0.00000000000000	0.00000000000000	0.00000000000000	0.00000000000000	0.00000000000000	27.47146600000000	0.00000000000000	0.00000000000000	0.00000000000000	0.00000000000000	
